<svg width="336" height="254" viewBox="0 0 336 254" fill="none" xmlns="http://www.w3.org/2000/svg">
<path fill-rule="evenodd" clip-rule="evenodd" d="M87.7498 88.7137L94.8358 100.161L109.717 90.9485V140.586H123.18V82.6141L167.781 55.0036L179.471 62.241C178.931 59.9227 178.565 57.552 178.356 55.1594C178.03 51.9295 177.957 48.6776 177.885 45.4254L167.781 39.17L87.7498 88.7137Z" fill="url(#paint0_linear_55_407)"/>
<path fill-rule="evenodd" clip-rule="evenodd" d="M225.977 137.445C226.005 137.218 226.037 136.991 226.063 136.765V81.1989C240.327 70.9248 238.925 54.9726 235.723 43.8529C229.157 21.0557 199.4 4.4546 165.69 6.11429C187.703 17.3933 183.173 39.2804 184.683 54.1083C186.381 73.8067 201.086 84.5771 209.846 85.5755C214.688 67.409 211.779 50.0325 205.021 31.6974C220.072 53.5658 228.268 109.56 193.89 134.261C198.408 134.86 221.531 136.654 225.977 137.445Z" fill="url(#paint1_linear_55_407)"/>
<path fill-rule="evenodd" clip-rule="evenodd" d="M264.85 74.0751C264.85 74.0751 262.382 73.8756 259.687 75.9711C256.982 78.0611 253.417 83.9607 247.218 87.0283C241.02 90.0992 236.322 86.8842 235.023 85.4519C233.718 84.0264 234.693 82.0686 234.693 82.0686C234.693 82.0686 231.642 80.8101 234.335 76.671C245.976 63.5347 264.85 74.0751 264.85 74.0751Z" fill="#0F233E"/>
<path fill-rule="evenodd" clip-rule="evenodd" d="M246.915 103.27C246.915 103.27 246.023 101.916 243.854 101.372C241.685 100.82 237.203 101.362 233.119 99.4023C229.034 97.4448 228.797 93.7241 229.011 92.4758C229.22 91.2275 230.623 90.9409 230.623 90.9409C230.623 90.9409 230.041 88.8592 233.263 88.5783C244.736 89.2816 246.915 103.27 246.915 103.27Z" fill="#0F233E"/>
<path fill-rule="evenodd" clip-rule="evenodd" d="M198.227 105.847C198.227 105.847 198.768 104.318 200.741 103.267C202.714 102.21 207.194 101.656 210.686 98.7704C214.179 95.8864 213.514 92.2181 213.005 91.0584C212.502 89.8974 211.071 89.9569 211.071 89.9569C211.071 89.9569 211.134 87.796 207.94 88.2992C196.973 91.7452 198.227 105.847 198.227 105.847Z" fill="#0F233E"/>
<path fill-rule="evenodd" clip-rule="evenodd" d="M61 157.794C132.107 136.355 203.457 138.224 275 158.706C214.862 118.42 121.722 120.149 61 157.794Z" fill="#FB6F08"/>
<path fill-rule="evenodd" clip-rule="evenodd" d="M152.27 11.6394C152.27 11.6394 153.891 11.6563 155.524 13.1834C157.163 14.7076 159.137 18.7677 162.997 21.1374C166.857 23.5089 170.112 21.6923 171.045 20.8354C171.98 19.9833 171.461 18.6488 171.461 18.6488C171.461 18.6488 173.526 18.0097 172.016 15.1499C165.206 5.88931 152.27 11.6394 152.27 11.6394Z" fill="#0F233E"/>
<path fill-rule="evenodd" clip-rule="evenodd" d="M156.983 37.2237C156.983 37.2237 157.995 35.9572 160.204 35.6121C162.414 35.2602 166.828 36.2075 171.074 34.6271C175.319 33.0492 175.895 29.3654 175.795 28.1031C175.7 26.8411 174.329 26.428 174.329 26.428C174.329 26.428 175.098 24.4077 171.915 23.8347C160.425 23.4914 156.983 37.2237 156.983 37.2237Z" fill="#0F233E"/>
<path opacity="0.84" fill-rule="evenodd" clip-rule="evenodd" d="M168.173 162.715C192.57 162.715 212.347 163.412 212.347 164.271C212.347 165.13 192.57 165.826 168.173 165.826C143.777 165.826 124 165.13 124 164.271C124 163.412 143.777 162.715 168.173 162.715Z" fill="#FFA101" fill-opacity="0.1"/>
<path d="M115.688 208.826H106.363L88.1387 177.13V208.826H79.4502V164.203H89.2285L106.999 195.355V164.203H115.688V208.826ZM151.955 199.139C151.733 201.096 150.714 203.084 148.897 205.103C146.072 208.312 142.116 209.916 137.03 209.916C132.832 209.916 129.129 208.564 125.92 205.859C122.711 203.155 121.106 198.755 121.106 192.66C121.106 186.949 122.549 182.569 125.436 179.522C128.342 176.474 132.106 174.95 136.728 174.95C139.472 174.95 141.945 175.465 144.145 176.494C146.344 177.524 148.161 179.148 149.594 181.368C150.885 183.326 151.723 185.596 152.106 188.18C152.328 189.693 152.419 191.873 152.379 194.719H129.795C129.916 198.029 130.955 200.35 132.913 201.682C134.104 202.509 135.537 202.923 137.212 202.923C138.988 202.923 140.431 202.418 141.541 201.409C142.146 200.864 142.681 200.108 143.146 199.139H151.955ZM143.418 189.027C143.277 186.747 142.58 185.021 141.329 183.851C140.098 182.66 138.564 182.065 136.728 182.065C134.729 182.065 133.175 182.69 132.065 183.942C130.976 185.193 130.289 186.888 130.007 189.027H143.418ZM185.861 179.37C188.525 182.216 189.857 186.394 189.857 191.903C189.857 197.716 188.546 202.146 185.922 205.193C183.318 208.241 179.958 209.765 175.841 209.765C173.217 209.765 171.037 209.109 169.302 207.797C168.353 207.07 167.425 206.011 166.517 204.618V221.814H157.979V175.828H166.244V180.702C167.173 179.269 168.161 178.139 169.211 177.312C171.128 175.838 173.409 175.102 176.053 175.102C179.908 175.102 183.177 176.525 185.861 179.37ZM180.957 192.327C180.957 189.784 180.372 187.534 179.201 185.576C178.051 183.619 176.174 182.64 173.57 182.64C170.442 182.64 168.293 184.123 167.122 187.09C166.517 188.664 166.214 190.662 166.214 193.084C166.214 196.919 167.233 199.613 169.271 201.167C170.482 202.075 171.915 202.529 173.57 202.529C175.972 202.529 177.799 201.601 179.05 199.744C180.321 197.887 180.957 195.415 180.957 192.327ZM197.365 179.4C199.646 176.494 203.561 175.041 209.111 175.041C212.724 175.041 215.933 175.758 218.738 177.191C221.544 178.623 222.946 181.328 222.946 185.304V200.441C222.946 201.49 222.966 202.762 223.007 204.255C223.067 205.385 223.239 206.152 223.521 206.556C223.804 206.959 224.228 207.292 224.793 207.555V208.826H215.408C215.146 208.16 214.964 207.535 214.863 206.949C214.762 206.364 214.682 205.698 214.621 204.951C213.43 206.243 212.058 207.343 210.504 208.251C208.647 209.321 206.548 209.856 204.207 209.856C201.22 209.856 198.748 209.008 196.79 207.313C194.853 205.597 193.884 203.175 193.884 200.047C193.884 195.99 195.448 193.054 198.576 191.237C200.292 190.248 202.814 189.542 206.145 189.118L209.081 188.755C210.675 188.553 211.816 188.301 212.502 187.998C213.733 187.473 214.349 186.656 214.349 185.546C214.349 184.194 213.874 183.265 212.926 182.761C211.997 182.236 210.625 181.974 208.809 181.974C206.77 181.974 205.327 182.478 204.479 183.487C203.874 184.234 203.47 185.243 203.269 186.515H194.943C195.125 183.629 195.932 181.257 197.365 179.4ZM203.783 202.59C204.59 203.256 205.579 203.589 206.75 203.589C208.607 203.589 210.312 203.044 211.866 201.954C213.44 200.864 214.258 198.876 214.318 195.99V192.781C213.773 193.124 213.218 193.407 212.653 193.629C212.108 193.831 211.352 194.023 210.383 194.204L208.445 194.567C206.629 194.89 205.327 195.284 204.54 195.748C203.208 196.535 202.542 197.756 202.542 199.411C202.542 200.885 202.956 201.944 203.783 202.59ZM230.817 164.203H239.445V208.826H230.817V164.203ZM256.762 175.828V208.826H248.013V175.828H256.762ZM256.762 163.931V171.893H248.013V163.931H256.762Z" fill="#0F233E"/>
<path d="M94.6846 242.826V235.758H88.4971V242.826H85.2207V226.992H88.4971V233.029H94.6846V226.992H97.9717V242.826H94.6846ZM110.658 232.6C111.646 233.839 112.141 235.303 112.141 236.993C112.141 238.712 111.646 240.184 110.658 241.408C109.67 242.626 108.17 243.234 106.157 243.234C104.145 243.234 102.645 242.626 101.656 241.408C100.668 240.184 100.174 238.712 100.174 236.993C100.174 235.303 100.668 233.839 101.656 232.6C102.645 231.361 104.145 230.741 106.157 230.741C108.17 230.741 109.67 231.361 110.658 232.6ZM106.146 233.33C105.251 233.33 104.56 233.649 104.073 234.286C103.593 234.916 103.354 235.819 103.354 236.993C103.354 238.168 103.593 239.074 104.073 239.711C104.56 240.348 105.251 240.667 106.146 240.667C107.042 240.667 107.729 240.348 108.209 239.711C108.689 239.074 108.929 238.168 108.929 236.993C108.929 235.819 108.689 234.916 108.209 234.286C107.729 233.649 107.042 233.33 106.146 233.33ZM120.917 234.34C120.659 233.774 120.154 233.491 119.402 233.491C118.529 233.491 117.941 233.774 117.641 234.34C117.476 234.662 117.394 235.142 117.394 235.779V242.826H114.289V231.139H117.265V232.847C117.644 232.238 118.002 231.805 118.339 231.547C118.933 231.089 119.703 230.859 120.648 230.859C121.544 230.859 122.267 231.056 122.818 231.45C123.262 231.816 123.599 232.285 123.828 232.858C124.229 232.17 124.727 231.665 125.321 231.343C125.951 231.021 126.653 230.859 127.427 230.859C127.942 230.859 128.451 230.96 128.952 231.16C129.453 231.361 129.908 231.712 130.316 232.213C130.646 232.621 130.868 233.123 130.982 233.717C131.054 234.111 131.09 234.687 131.09 235.446L131.068 242.826H127.932V235.371C127.932 234.927 127.86 234.562 127.717 234.276C127.445 233.731 126.943 233.459 126.213 233.459C125.368 233.459 124.784 233.81 124.462 234.512C124.297 234.884 124.215 235.332 124.215 235.855V242.826H121.132V235.855C121.132 235.16 121.06 234.655 120.917 234.34ZM143.938 239.389C143.859 240.083 143.497 240.789 142.853 241.505C141.85 242.644 140.446 243.213 138.642 243.213C137.152 243.213 135.838 242.733 134.699 241.774C133.561 240.814 132.991 239.253 132.991 237.09C132.991 235.063 133.503 233.509 134.527 232.428C135.559 231.346 136.894 230.806 138.534 230.806C139.508 230.806 140.385 230.988 141.166 231.354C141.947 231.719 142.591 232.295 143.1 233.083C143.558 233.778 143.855 234.583 143.991 235.5C144.07 236.037 144.102 236.811 144.088 237.82H136.074C136.117 238.995 136.486 239.818 137.181 240.291C137.603 240.585 138.112 240.732 138.706 240.732C139.336 240.732 139.848 240.553 140.242 240.194C140.457 240.001 140.647 239.733 140.812 239.389H143.938ZM140.908 235.801C140.858 234.992 140.611 234.379 140.167 233.964C139.73 233.541 139.186 233.33 138.534 233.33C137.825 233.33 137.274 233.552 136.88 233.996C136.493 234.44 136.25 235.042 136.149 235.801H140.908ZM154.229 231.654C155.145 232.242 155.672 233.251 155.808 234.684H152.746C152.703 234.29 152.592 233.978 152.413 233.749C152.076 233.334 151.504 233.126 150.694 233.126C150.028 233.126 149.552 233.23 149.266 233.438C148.986 233.645 148.847 233.889 148.847 234.168C148.847 234.519 148.997 234.773 149.298 234.931C149.599 235.095 150.662 235.378 152.488 235.779C153.706 236.066 154.619 236.499 155.228 237.079C155.829 237.666 156.13 238.401 156.13 239.281C156.13 240.442 155.697 241.39 154.83 242.128C153.971 242.859 152.639 243.224 150.834 243.224C148.993 243.224 147.633 242.837 146.752 242.064C145.878 241.283 145.441 240.291 145.441 239.088H148.546C148.61 239.632 148.75 240.019 148.965 240.248C149.344 240.656 150.046 240.86 151.07 240.86C151.672 240.86 152.148 240.771 152.499 240.592C152.857 240.413 153.036 240.144 153.036 239.786C153.036 239.443 152.893 239.181 152.606 239.002C152.32 238.823 151.257 238.515 149.416 238.078C148.091 237.749 147.157 237.337 146.612 236.843C146.068 236.356 145.796 235.654 145.796 234.737C145.796 233.656 146.218 232.729 147.063 231.955C147.916 231.175 149.112 230.784 150.651 230.784C152.112 230.784 153.305 231.074 154.229 231.654ZM163.768 240.646V242.934L162.317 242.987C160.871 243.038 159.882 242.787 159.353 242.235C159.009 241.885 158.837 241.344 158.837 240.613V233.405H157.204V231.225H158.837V227.959H161.866V231.225H163.768V233.405H161.866V239.593C161.866 240.073 161.927 240.373 162.049 240.495C162.171 240.61 162.543 240.667 163.166 240.667C163.259 240.667 163.356 240.667 163.456 240.667C163.563 240.66 163.667 240.653 163.768 240.646ZM166.174 232.385C166.983 231.354 168.372 230.838 170.342 230.838C171.624 230.838 172.762 231.092 173.758 231.601C174.753 232.109 175.251 233.069 175.251 234.48V239.851C175.251 240.223 175.258 240.674 175.272 241.204C175.294 241.605 175.355 241.877 175.455 242.021C175.555 242.164 175.706 242.282 175.906 242.375V242.826H172.576C172.483 242.59 172.419 242.368 172.383 242.16C172.347 241.953 172.318 241.716 172.297 241.451C171.874 241.91 171.387 242.3 170.836 242.622C170.177 243.002 169.432 243.192 168.602 243.192C167.542 243.192 166.664 242.891 165.97 242.289C165.282 241.68 164.938 240.821 164.938 239.711C164.938 238.272 165.493 237.23 166.604 236.585C167.212 236.234 168.107 235.984 169.289 235.833L170.331 235.704C170.897 235.633 171.301 235.543 171.545 235.436C171.982 235.249 172.2 234.959 172.2 234.566C172.2 234.086 172.032 233.756 171.695 233.577C171.366 233.391 170.879 233.298 170.234 233.298C169.511 233.298 168.999 233.477 168.698 233.835C168.483 234.1 168.34 234.458 168.269 234.909H165.314C165.379 233.885 165.665 233.044 166.174 232.385ZM168.451 240.613C168.738 240.85 169.089 240.968 169.504 240.968C170.163 240.968 170.768 240.775 171.319 240.388C171.878 240.001 172.168 239.296 172.189 238.272V237.133C171.996 237.255 171.799 237.355 171.599 237.434C171.405 237.505 171.137 237.573 170.793 237.638L170.105 237.767C169.461 237.881 168.999 238.021 168.72 238.186C168.247 238.465 168.011 238.898 168.011 239.485C168.011 240.008 168.158 240.384 168.451 240.613ZM182.738 239.754L185.155 231.117H188.41L184.393 242.633C183.619 244.853 183.007 246.228 182.556 246.758C182.104 247.295 181.202 247.564 179.849 247.564C179.576 247.564 179.358 247.56 179.193 247.553C179.029 247.553 178.782 247.542 178.452 247.521V245.071L178.839 245.093C179.14 245.107 179.426 245.096 179.698 245.061C179.97 245.025 180.2 244.943 180.386 244.814C180.565 244.692 180.729 244.438 180.88 244.051C181.037 243.664 181.102 243.428 181.073 243.342L176.776 231.117H180.182L182.738 239.754ZM198.293 231.654C199.21 232.242 199.736 233.251 199.872 234.684H196.811C196.768 234.29 196.657 233.978 196.478 233.749C196.141 233.334 195.568 233.126 194.759 233.126C194.093 233.126 193.617 233.23 193.33 233.438C193.051 233.645 192.911 233.889 192.911 234.168C192.911 234.519 193.062 234.773 193.362 234.931C193.663 235.095 194.727 235.378 196.553 235.779C197.77 236.066 198.683 236.499 199.292 237.079C199.894 237.666 200.194 238.401 200.194 239.281C200.194 240.442 199.761 241.39 198.895 242.128C198.035 242.859 196.703 243.224 194.898 243.224C193.058 243.224 191.697 242.837 190.816 242.064C189.943 241.283 189.506 240.291 189.506 239.088H192.61C192.675 239.632 192.814 240.019 193.029 240.248C193.409 240.656 194.111 240.86 195.135 240.86C195.736 240.86 196.213 240.771 196.563 240.592C196.922 240.413 197.101 240.144 197.101 239.786C197.101 239.443 196.957 239.181 196.671 239.002C196.384 238.823 195.321 238.515 193.48 238.078C192.156 237.749 191.221 237.337 190.677 236.843C190.132 236.356 189.86 235.654 189.86 234.737C189.86 233.656 190.283 232.729 191.128 231.955C191.98 231.175 193.176 230.784 194.716 230.784C196.177 230.784 197.369 231.074 198.293 231.654ZM202.418 239.625H205.673V242.826H202.418V239.625ZM218.725 235.318H215.588C215.531 234.881 215.384 234.487 215.147 234.136C214.804 233.663 214.27 233.427 213.547 233.427C212.516 233.427 211.81 233.939 211.431 234.963C211.23 235.507 211.13 236.231 211.13 237.133C211.13 237.992 211.23 238.683 211.431 239.206C211.796 240.18 212.483 240.667 213.493 240.667C214.209 240.667 214.718 240.474 215.019 240.087C215.319 239.7 215.502 239.199 215.566 238.583H218.692C218.621 239.514 218.284 240.395 217.683 241.226C216.723 242.565 215.301 243.234 213.418 243.234C211.535 243.234 210.149 242.676 209.261 241.559C208.373 240.442 207.929 238.991 207.929 237.208C207.929 235.196 208.419 233.631 209.4 232.514C210.382 231.397 211.735 230.838 213.461 230.838C214.929 230.838 216.129 231.167 217.06 231.826C217.998 232.485 218.553 233.649 218.725 235.318ZM230.605 232.6C231.594 233.839 232.088 235.303 232.088 236.993C232.088 238.712 231.594 240.184 230.605 241.408C229.617 242.626 228.117 243.234 226.104 243.234C224.092 243.234 222.592 242.626 221.604 241.408C220.615 240.184 220.121 238.712 220.121 236.993C220.121 235.303 220.615 233.839 221.604 232.6C222.592 231.361 224.092 230.741 226.104 230.741C228.117 230.741 229.617 231.361 230.605 232.6ZM226.094 233.33C225.199 233.33 224.507 233.649 224.021 234.286C223.541 234.916 223.301 235.819 223.301 236.993C223.301 238.168 223.541 239.074 224.021 239.711C224.507 240.348 225.199 240.667 226.094 240.667C226.989 240.667 227.676 240.348 228.156 239.711C228.636 239.074 228.876 238.168 228.876 236.993C228.876 235.819 228.636 234.916 228.156 234.286C227.676 233.649 226.989 233.33 226.094 233.33ZM240.864 234.34C240.606 233.774 240.102 233.491 239.35 233.491C238.476 233.491 237.889 233.774 237.588 234.34C237.423 234.662 237.341 235.142 237.341 235.779V242.826H234.236V231.139H237.212V232.847C237.591 232.238 237.95 231.805 238.286 231.547C238.881 231.089 239.65 230.859 240.596 230.859C241.491 230.859 242.214 231.056 242.766 231.45C243.21 231.816 243.546 232.285 243.775 232.858C244.176 232.17 244.674 231.665 245.269 231.343C245.899 231.021 246.601 230.859 247.374 230.859C247.89 230.859 248.398 230.96 248.899 231.16C249.401 231.361 249.855 231.712 250.264 232.213C250.593 232.621 250.815 233.123 250.93 233.717C251.001 234.111 251.037 234.687 251.037 235.446L251.016 242.826H247.879V235.371C247.879 234.927 247.807 234.562 247.664 234.276C247.392 233.731 246.891 233.459 246.16 233.459C245.315 233.459 244.731 233.81 244.409 234.512C244.244 234.884 244.162 235.332 244.162 235.855V242.826H241.079V235.855C241.079 235.16 241.007 234.655 240.864 234.34Z" fill="#0F233E"/>
<path d="M180.38 90.842V112.787H154.696V90.842C154.696 83.761 160.457 78 167.538 78C170.224 78 172.721 78.8285 174.784 80.2465C178.161 82.5611 180.38 86.4472 180.38 90.842Z" fill="#0F233E"/>
<path d="M180.38 90.8421V112.787H155.042V91.0728C155.042 84.023 160.752 78.2827 167.79 78.232C167.821 78.2309 167.853 78.2309 167.884 78.2309C170.423 78.2309 172.79 78.9705 174.784 80.2466C178.161 82.5611 180.38 86.4472 180.38 90.8421Z" fill="#0F233E"/>
<path d="M180.149 90.6747V112.787H155.042V90.9067C155.042 83.8208 160.752 78.0511 167.79 78.0001C170.276 78.0256 172.595 78.7655 174.553 80.025C177.931 82.3513 180.149 86.2573 180.149 90.6747Z" fill="#0F233E"/>
<path d="M178.649 90.842V112.786H156.427V90.842C156.427 84.7153 161.411 79.7307 167.538 79.7307C170.66 79.7307 173.486 81.0253 175.505 83.1056C177.45 85.1075 178.649 87.8375 178.649 90.842Z" fill="#0F233E"/>
<path d="M178.649 90.842V112.787H156.658V91.0728C156.658 84.946 161.642 79.9615 167.769 79.9615C170.773 79.9615 173.504 81.1604 175.505 83.1056C177.451 85.1075 178.649 87.8375 178.649 90.842Z" fill="#0F233E"/>
<path d="M177.496 90.8422V111.633H157.581V90.8422C157.581 89.3791 157.897 87.9887 158.463 86.738C158.869 85.8427 159.403 85.0189 160.043 84.2884C161.867 82.2024 164.549 80.8847 167.538 80.8847C168.721 80.8847 169.854 81.0913 170.906 81.4697C171.467 81.6705 172.003 81.9209 172.512 82.214C173.634 82.8624 174.616 83.722 175.405 84.7385C176.716 86.4242 177.496 88.5414 177.496 90.8422Z" fill="url(#paint2_linear_55_407)"/>
<path opacity="0.1" d="M177.496 95.3836V106.796L174.376 111.633H167.014L177.496 95.3836Z" fill="#0F233E"/>
<path opacity="0.1" d="M175.405 84.7384L158.057 111.633H157.581V105.362L172.512 82.2139C173.634 82.8623 174.616 83.7219 175.405 84.7384Z" fill="#0F233E"/>
<path opacity="0.2" d="M177.496 90.842V111.633H176.342V91.9959C176.342 86.4968 171.883 82.0384 166.384 82.0384C163.929 82.0384 161.681 82.9269 159.946 84.4003C161.771 82.2495 164.495 80.8846 167.538 80.8846C173.037 80.8846 177.496 85.3429 177.496 90.842Z" fill="#0F233E"/>
<path d="M182.076 113.962H153L154.696 112.787H180.38L182.076 113.962Z" fill="#0F233E"/>
<path d="M182.076 113.962H153V115H182.076V113.962Z" fill="#0F233E"/>
<path d="M177.927 100.965H157.07V102.119H177.927V100.965Z" fill="#0F233E"/>
<path d="M174.118 83.3488L167.282 91.3576L167.279 91.3611L166.474 90.5338L173.86 83.1481L174.118 83.3488Z" fill="#0F233E"/>
<path d="M168.615 90.5453L168.38 90.7727L167.786 91.3496L160.369 83.9323L160.968 83.3603L161.217 83.1481L168.615 90.5453Z" fill="#0F233E"/>
<path d="M168.38 90.7726L167.786 91.3496L159.981 83.544L160.567 82.959L168.38 90.7726Z" fill="#0F233E"/>
<path d="M175.096 83.544L167.282 91.3576L166.705 90.7646L174.511 82.959L175.096 83.544Z" fill="#0F233E"/>
<path d="M166.961 101.963H157.581V102.119H166.961V101.963Z" fill="#0F233E"/>
<path d="M177.495 101.963H168.115V102.119H177.495V101.963Z" fill="#0F233E"/>
<path d="M168.115 101.963H167.96V111.664H168.115V101.963Z" fill="#0F233E"/>
<path d="M166.961 111.633H157.581V111.789H166.961V111.633Z" fill="#0F233E"/>
<path d="M177.495 111.633H167.96V111.789H177.495V111.633Z" fill="#0F233E"/>
<path d="M166.961 111.664H157.581V111.82H166.961V111.664Z" fill="#0F233E"/>
<path d="M177.495 111.664H167.96V111.82H177.495V111.664Z" fill="#0F233E"/>
<path d="M166.961 100.965H157.581V101.12H166.961V100.965Z" fill="#0F233E"/>
<path d="M176.982 84.9839C176.982 84.9839 178.951 86.6939 178.951 91.918C178.951 97.1422 178.951 112.787 178.951 112.787H178.657V90.8424C178.657 90.8424 178.453 86.8616 176.982 84.9839Z" fill="#0F233E"/>
<path d="M177.927 90.2653H157.07V91.4192H177.927V90.2653Z" fill="#0F233E"/>
<path d="M168.115 111.82L166.961 111.789V90.8422H168.115V111.82Z" fill="#0F233E"/>
<path d="M166.961 91.2636H157.581V91.4192H166.961V91.2636Z" fill="#0F233E"/>
<path d="M177.495 91.2636H168.115V91.4192H177.495V91.2636Z" fill="#0F233E"/>
<path d="M168.115 91.2636H167.96V100.965H168.115V91.2636Z" fill="#0F233E"/>
<path d="M177.495 100.965H167.96V101.12H177.495V100.965Z" fill="#0F233E"/>
<defs>
<linearGradient id="paint0_linear_55_407" x1="116.956" y1="135.947" x2="177.946" y2="47.6722" gradientUnits="userSpaceOnUse">
<stop stop-color="#FF6F01"/>
<stop offset="0.434541" stop-color="#FF8B00"/>
<stop offset="1" stop-color="#FEA501"/>
</linearGradient>
<linearGradient id="paint1_linear_55_407" x1="166" y1="6" x2="223.5" y2="138.5" gradientUnits="userSpaceOnUse">
<stop stop-color="#0F233E"/>
<stop offset="1" stop-color="#FFA302"/>
</linearGradient>
<linearGradient id="paint2_linear_55_407" x1="167.538" y1="111.633" x2="167.538" y2="82.1076" gradientUnits="userSpaceOnUse">
<stop stop-color="#E9E9E9"/>
<stop offset="1" stop-color="#FFA201"/>
</linearGradient>
</defs>
</svg>
